<svg xmlns="http://www.w3.org/2000/svg" xmlns:xlink="http://www.w3.org/1999/xlink" version="1.1" width="1024" height="1024" viewBox="6 -100 1024 1024" xml:space="preserve">
<desc>Created with Fabric.js 4.6.0</desc>
<defs>
</defs>
<g transform="matrix(0.5 0 0 0.5 515.49 412.25)"  >
<path style="stroke: rgb(0,0,0); stroke-width: 1; stroke-dasharray: none; stroke-linecap: butt; stroke-dashoffset: 0; stroke-linejoin: miter; stroke-miterlimit: 4; fill: rgb(240,240,234); fill-rule: nonzero; opacity: 1;" vector-effect="non-scaling-stroke"  transform=" translate(-996.85, -1005.28)" d="M 1335.53 1576.47 C 1337.23 1614.28 1332.86 1644.83 1310.72 1676.91 C 1292.96 1702.51 1267.74 1722.02 1238.5 1732.78 C 1178.5 1754.73 1117.23 1736.23 1062.58 1709.15 C 1019.57 1687.83 989.698 1671.87 940.612 1681.47 C 843.292 1700.5 776.718 1783.74 680.028 1802.35 C 652.181 1806.91 619.262 1805.45 595.388 1789.23 C 537.445 1749.85 572.324 1656.64 516.698 1616.62 C 474.899 1588.22 425.14 1614.22 384.616 1630.32 C 344.831 1646.14 291.559 1656.32 254.703 1629.5 C 239.876 1618.64 229.955 1602.34 227.111 1584.19 C 221.847 1549.88 244.17 1509.34 258.304 1478.49 C 268.388 1456.43 278.235 1434.26 287.842 1411.98 C 318.778 1341.12 345.094 1268.33 366.625 1194.07 C 392.93 1100.55 413.326 1005.46 427.691 909.381 C 437.465 846.146 445.54 782.002 455.032 718.622 C 473.366 596.207 494.888 469.914 570.256 367.911 C 633.739 281.981 729.053 225.123 834.826 210.086 C 935.73 195.293 1038.42 220.577 1120.92 280.529 C 1255.5 380.355 1290.61 530.991 1310.88 688.917 C 1313.16 706.685 1314.76 724.715 1317.41 742.409 C 1330.2 735.568 1353.72 726.39 1368.05 720.012 L 1477.96 671.268 L 1561.52 634.262 C 1577.22 627.324 1593.54 619.71 1609.7 614.076 C 1629.39 607.213 1652.77 617.625 1661.41 636.701 C 1673.03 662.365 1683.71 688.89 1695.65 714.491 C 1704.68 733.847 1718.91 757.595 1703.58 777.997 C 1699.46 783.638 1695.35 786.396 1689.03 789.317 C 1665.24 800.302 1640.83 810.818 1616.88 821.42 L 1484.63 879.893 L 1400.63 916.953 C 1385.9 923.491 1364.68 933.434 1349.72 938.643 C 1351.93 950.998 1356.1 971.188 1356.23 982.782 C 1383.93 981.542 1415.39 982.233 1443.48 982.228 L 1595.92 982.316 L 1684.3 982.24 C 1699.18 982.221 1715.8 981.463 1730.45 982.798 C 1753.81 984.926 1767.52 1004.61 1767.37 1026.79 C 1767.15 1058.87 1767.12 1090.68 1767.15 1122.61 L 1767.14 1341.6 L 1767.14 1464.91 C 1767.16 1486.62 1767.67 1508.93 1766.54 1530.38 C 1765.37 1552.51 1749.48 1571.92 1727.27 1574.55 C 1713.21 1576.57 1700.03 1576.11 1685.82 1576.12 L 1626.88 1576.13 L 1409.64 1576.11 L 1359.79 1576.02 C 1354.99 1576.03 1339.34 1575.83 1335.53 1576.47 z" stroke-linecap="round" />
</g>
<g transform="matrix(0.5 0 0 0.5 595.75 456.53)"  >
<path style="stroke: none; stroke-width: 1; stroke-dasharray: none; stroke-linecap: butt; stroke-dashoffset: 0; stroke-linejoin: miter; stroke-miterlimit: 4; fill: rgb(0,0,0); fill-rule: nonzero; opacity: 1;"  transform=" translate(-1152.35, -1094.33)" d="M 1317.41 742.409 C 1330.2 735.568 1353.72 726.39 1368.05 720.012 L 1477.96 671.268 L 1561.52 634.262 C 1577.22 627.324 1593.54 619.71 1609.7 614.076 C 1629.39 607.213 1652.77 617.625 1661.41 636.701 C 1673.03 662.365 1683.71 688.89 1695.65 714.491 C 1704.68 733.847 1718.91 757.595 1703.58 777.997 C 1699.46 783.638 1695.35 786.396 1689.03 789.317 C 1665.24 800.302 1640.83 810.818 1616.88 821.42 L 1484.63 879.893 L 1400.63 916.953 C 1385.9 923.491 1364.68 933.434 1349.72 938.643 C 1351.93 950.998 1356.1 971.188 1356.23 982.782 C 1383.93 981.542 1415.39 982.233 1443.48 982.228 L 1595.92 982.316 L 1684.3 982.24 C 1699.18 982.221 1715.8 981.463 1730.45 982.798 C 1753.81 984.926 1767.52 1004.61 1767.37 1026.79 C 1767.15 1058.87 1767.12 1090.68 1767.15 1122.61 L 1767.14 1341.6 L 1767.14 1464.91 C 1767.16 1486.62 1767.67 1508.93 1766.54 1530.38 C 1765.37 1552.51 1749.48 1571.92 1727.27 1574.55 C 1713.21 1576.57 1700.03 1576.11 1685.82 1576.12 L 1626.88 1576.13 L 1409.64 1576.11 L 1359.79 1576.02 C 1354.99 1576.03 1339.34 1575.83 1335.53 1576.47 C 1240.5 1575.05 1141.75 1576.34 1046.44 1576.48 L 966.229 1576.58 C 953.42 1576.6 930.451 1577.18 918.265 1575.7 C 910.753 1574.15 906.613 1572.51 899.798 1569.29 C 895.877 1568.08 888.509 1562.11 885.69 1559.1 C 878.754 1551.64 873.883 1542.5 871.556 1532.58 C 868.21 1517.69 869.487 1475.5 869.489 1458.27 C 869.285 1418.28 869.355 1378.3 869.699 1338.31 C 834.143 1344.89 801.058 1346.46 765.299 1340.59 C 729.151 1335.24 693.962 1324.71 660.815 1309.32 C 660.627 1309.28 660.44 1309.24 660.252 1309.21 C 631.095 1297.94 523.763 1234.31 538.753 1200.45 C 540.972 1195.39 545.15 1191.44 550.33 1189.52 C 555.654 1187.54 561.597 1188.17 566.389 1191.22 C 572.867 1195.39 589.646 1214.52 598.703 1221.81 C 629.522 1246.61 656.627 1261.05 691.567 1278.09 C 696.907 1279.99 721.365 1288.05 724.979 1289.78 C 762.363 1298.38 780.252 1301.91 819.017 1300.97 C 847.647 1300.64 860.391 1294.33 885.843 1285.44 C 890.869 1282.12 898.827 1278.47 904.428 1274.7 C 930.75 1256.96 940.721 1242.19 947.548 1212.22 C 948.65 1201.74 948.504 1196.41 947.583 1185.97 C 944.176 1174.06 942.293 1169.46 935.498 1159.17 C 909.26 1127.09 859.17 1123.66 820.484 1113.45 C 800.021 1108.13 780.047 1101.08 760.78 1092.38 C 757.481 1091.47 748.485 1086.45 745.374 1084.71 C 708.008 1063.57 676.223 1038.28 654.634 1000.3 C 644.328 982.174 648.289 959.198 674.43 961.34 C 678.982 961.713 683.544 965.728 686.086 969.66 C 689.481 974.945 691.976 980.312 694.745 985.94 C 709.709 1006.24 724.964 1021.04 746.042 1034.49 C 747.749 1035.58 754.938 1040.21 756.016 1041.28 L 769.299 1048.57 C 771.945 1049.93 782.249 1055.05 784.094 1056.44 L 803.164 1064.12 C 825.457 1071.46 839.127 1075.32 862.068 1079.52 C 860.466 1073.91 859.458 1070.23 858.421 1064.46 C 854.634 1049.26 849.22 1020.1 847.575 1004.89 L 847.18 1002.4 C 847.995 998.572 852.193 963.233 851.719 960.811 C 855.584 945.838 878.867 936.745 891.752 931.589 C 987.086 888.71 1082.64 846.332 1178.42 804.458 L 1262.39 767.428 C 1276.29 761.244 1296.29 751.582 1310.17 746.468 L 1317.41 742.409 z" stroke-linecap="round" />
</g>
<g transform="matrix(0.5 0 0 0.5 670.15 389.89)"  >
<path style="stroke: none; stroke-width: 1; stroke-dasharray: none; stroke-linecap: butt; stroke-dashoffset: 0; stroke-linejoin: miter; stroke-miterlimit: 4; fill: rgb(129,83,230); fill-rule: nonzero; opacity: 1;"  transform=" translate(-1301.16, -961.06)" d="M 1349.72 938.643 C 1351.93 950.998 1356.1 971.188 1356.23 982.782 C 1321.4 984.066 1281.39 983.193 1246.09 983.207 C 1255.21 979.631 1268.65 974.089 1277.27 969.733 C 1299.56 960.774 1328.14 945.818 1349.72 938.643 z" stroke-linecap="round" />
</g>
<g transform="matrix(0.5 0 0 0.5 764.79 346.29)"  >
<path style="stroke: none; stroke-width: 1; stroke-dasharray: none; stroke-linecap: butt; stroke-dashoffset: 0; stroke-linejoin: miter; stroke-miterlimit: 4; fill: rgb(7,6,25); fill-rule: nonzero; opacity: 1;"  transform=" translate(-1490.42, -873.87)" d="M 1277.27 969.733 C 1277.35 969.005 1277.7 966.717 1278.61 966.281 C 1310.05 951.203 1343.05 939.059 1374.91 925.229 L 1619.13 817.316 C 1644.15 806.172 1672.26 794.915 1696.3 781.731 C 1700.03 779.685 1698.76 779.809 1703.58 777.997 C 1699.46 783.638 1695.35 786.396 1689.03 789.317 C 1665.24 800.302 1640.83 810.818 1616.88 821.42 L 1484.63 879.893 L 1400.63 916.953 C 1385.9 923.491 1364.68 933.434 1349.72 938.643 C 1328.14 945.818 1299.56 960.774 1277.27 969.733 z" stroke-linecap="round" />
</g>
<g transform="matrix(0.5 0 0 0.5 570.38 328.9)"  >
<path style="stroke: none; stroke-width: 1; stroke-dasharray: none; stroke-linecap: butt; stroke-dashoffset: 0; stroke-linejoin: miter; stroke-miterlimit: 4; fill: rgb(7,6,25); fill-rule: nonzero; opacity: 1;"  transform=" translate(-1101.62, -839.07)" d="M 1310.17 746.468 L 1311.49 747.287 C 1296.16 756.925 1259.12 772.2 1241.84 779.665 L 1137.19 825.087 L 967.551 899.997 C 956.196 905.081 900.596 933.441 891.752 931.589 C 987.086 888.71 1082.64 846.332 1178.42 804.458 L 1262.39 767.428 C 1276.29 761.244 1296.29 751.582 1310.17 746.468 z" stroke-linecap="round" />
</g>
<g transform="matrix(0.5 0 0 0.5 443.87 472.23)"  >
<path style="stroke: none; stroke-width: 1; stroke-dasharray: none; stroke-linecap: butt; stroke-dashoffset: 0; stroke-linejoin: miter; stroke-miterlimit: 4; fill: rgb(7,6,25); fill-rule: nonzero; opacity: 1;"  transform=" translate(-848.59, -1125.73)" d="M 760.78 1092.38 C 764.603 1091.33 789.453 1100.38 794.026 1102.36 C 833.275 1119.31 911.597 1119.54 936.396 1157.96 L 935.498 1159.17 C 909.26 1127.09 859.17 1123.66 820.484 1113.45 C 800.021 1108.13 780.047 1101.08 760.78 1092.38 z" stroke-linecap="round" />
</g>
<g transform="matrix(0.5 0 0 0.5 376.69 571.82)"  >
<path style="stroke: none; stroke-width: 1; stroke-dasharray: none; stroke-linecap: butt; stroke-dashoffset: 0; stroke-linejoin: miter; stroke-miterlimit: 4; fill: rgb(7,6,25); fill-rule: nonzero; opacity: 1;"  transform=" translate(-714.24, -1324.91)" d="M 660.815 1309.32 C 666.912 1307.95 703.396 1323.03 713.645 1326.12 C 730.815 1331.28 748.313 1335.29 766.021 1338.1 L 767.664 1339.47 C 765.985 1340.59 766.81 1340.31 765.299 1340.59 C 729.151 1335.24 693.962 1324.71 660.815 1309.32 z" stroke-linecap="round" />
</g>
<g transform="matrix(0.5 0 0 0.5 444.59 556.61)"  >
<path style="stroke: none; stroke-width: 1; stroke-dasharray: none; stroke-linecap: butt; stroke-dashoffset: 0; stroke-linejoin: miter; stroke-miterlimit: 4; fill: rgb(7,6,25); fill-rule: nonzero; opacity: 1;"  transform=" translate(-850.03, -1294.5)" d="M 819.017 1300.97 C 847.647 1300.64 860.391 1294.33 885.843 1285.44 C 879.624 1297.3 829.202 1304.66 815.473 1303.42 L 814.212 1302.61 C 816.575 1301.05 816.622 1301.91 819.017 1300.97 z" stroke-linecap="round" />
</g>
<g transform="matrix(0.5 0 0 0.5 446.12 425.99)"  >
<path style="stroke: none; stroke-width: 1; stroke-dasharray: none; stroke-linecap: butt; stroke-dashoffset: 0; stroke-linejoin: miter; stroke-miterlimit: 4; fill: rgb(7,6,25); fill-rule: nonzero; opacity: 1;"  transform=" translate(-853.09, -1033.26)" d="M 847.575 1004.89 L 848.434 1002.05 C 850.72 1004.88 860.051 1059.69 858.421 1064.46 C 854.634 1049.26 849.22 1020.1 847.575 1004.89 z" stroke-linecap="round" />
</g>
<g transform="matrix(0.5 0 0 0.5 373.71 551.61)"  >
<path style="stroke: none; stroke-width: 1; stroke-dasharray: none; stroke-linecap: butt; stroke-dashoffset: 0; stroke-linejoin: miter; stroke-miterlimit: 4; fill: rgb(7,6,25); fill-rule: nonzero; opacity: 1;"  transform=" translate(-708.27, -1284.49)" d="M 691.567 1278.09 C 696.907 1279.99 721.365 1288.05 724.979 1289.78 L 723.9 1290.9 C 717.018 1289.86 693.691 1284.54 691.567 1278.09 z" stroke-linecap="round" />
</g>
<g transform="matrix(0.5 0 0 0.5 494.37 509.2)"  >
<path style="stroke: none; stroke-width: 1; stroke-dasharray: none; stroke-linecap: butt; stroke-dashoffset: 0; stroke-linejoin: miter; stroke-miterlimit: 4; fill: rgb(7,6,25); fill-rule: nonzero; opacity: 1;"  transform=" translate(-949.6, -1199.67)" d="M 947.583 1185.97 L 949.555 1185.77 C 952.694 1189.96 952.091 1208.72 949.141 1213.49 L 948.159 1213.58 L 947.548 1212.22 C 948.65 1201.74 948.504 1196.41 947.583 1185.97 z" stroke-linecap="round" />
</g>
<g transform="matrix(0.5 0 0 0.5 364.75 398.45)"  >
<path style="stroke: none; stroke-width: 1; stroke-dasharray: none; stroke-linecap: butt; stroke-dashoffset: 0; stroke-linejoin: miter; stroke-miterlimit: 4; fill: rgb(7,6,25); fill-rule: nonzero; opacity: 1;"  transform=" translate(-690.34, -978.17)" d="M 694.745 985.94 C 694.1 986.26 692.901 986.492 692.144 986.682 C 689.065 983.121 685.146 974.247 686.086 969.66 C 689.481 974.945 691.976 980.312 694.745 985.94 z" stroke-linecap="round" />
</g>
<g transform="matrix(0.5 0 0 0.5 474.51 695.56)"  >
<path style="stroke: none; stroke-width: 1; stroke-dasharray: none; stroke-linecap: butt; stroke-dashoffset: 0; stroke-linejoin: miter; stroke-miterlimit: 4; fill: rgb(7,6,25); fill-rule: nonzero; opacity: 1;"  transform=" translate(-909.87, -1572.4)" d="M 899.798 1569.29 C 904.568 1568.19 915.269 1571.93 919.879 1573.87 L 919.937 1575.14 L 918.265 1575.7 C 910.753 1574.15 906.613 1572.51 899.798 1569.29 z" stroke-linecap="round" />
</g>
<g transform="matrix(0.5 0 0 0.5 416.39 439.78)"  >
<path style="stroke: none; stroke-width: 1; stroke-dasharray: none; stroke-linecap: butt; stroke-dashoffset: 0; stroke-linejoin: miter; stroke-miterlimit: 4; fill: rgb(7,6,25); fill-rule: nonzero; opacity: 1;"  transform=" translate(-793.63, -1060.85)" d="M 784.094 1056.44 L 803.164 1064.12 L 803.087 1064.72 L 801.552 1065.25 C 795.15 1063.05 790.73 1062.51 784.756 1059.25 L 784.094 1056.44 z" stroke-linecap="round" />
</g>
<g transform="matrix(0.5 0 0 0.5 400.7 432.22)"  >
<path style="stroke: none; stroke-width: 1; stroke-dasharray: none; stroke-linecap: butt; stroke-dashoffset: 0; stroke-linejoin: miter; stroke-miterlimit: 4; fill: rgb(7,6,25); fill-rule: nonzero; opacity: 1;"  transform=" translate(-762.25, -1045.72)" d="M 756.016 1041.28 L 769.299 1048.57 L 766.223 1050.16 C 761.076 1048.39 758.945 1047.47 755.21 1043.49 L 756.016 1041.28 z" stroke-linecap="round" />
</g>
<g transform="matrix(0.5 0 0 0.5 680.3 615.24)"  >
<path style="stroke: none; stroke-width: 1; stroke-dasharray: none; stroke-linecap: butt; stroke-dashoffset: 0; stroke-linejoin: miter; stroke-miterlimit: 4; fill: rgb(255,255,255); fill-rule: nonzero; opacity: 1;"  transform=" translate(-1321.44, -1411.76)" d="M 1324.25 1395.2 C 1296.51 1393.37 1028.02 1396.2 1025.81 1394.24 C 1029.95 1390.67 1047.63 1392.26 1054.3 1392.35 C 1069.28 1392.5 1084.25 1392.55 1099.22 1392.51 L 1441.57 1392.34 L 1559.77 1392.28 C 1573.43 1392.34 1620.63 1388.35 1626.35 1399.8 L 1626.08 1400.57 C 1632.25 1413.68 1629.6 1420.66 1617.8 1428.69 L 1617.49 1430.21 L 1188.62 1429.96 C 1176.58 1429.96 1164.56 1429.82 1152.52 1430.26 C 1145.94 1430.53 1139.3 1431.88 1132.7 1431.86 C 1097.22 1431.72 1061.99 1431.81 1026.56 1430 C 1024.58 1429.9 1023.96 1429.05 1023.05 1427.7 C 1022.08 1426.97 1021.14 1426.21 1020.22 1425.41 C 1009.42 1415.94 1011.76 1397.41 1027.5 1395.94 C 1036.16 1395.13 1046.58 1395.61 1055.38 1395.61 L 1105.36 1395.63 L 1247.21 1395.59 C 1271.27 1395.58 1300.51 1396.34 1324.25 1395.2 z" stroke-linecap="round" />
</g>
<g transform="matrix(0.5 0 0 0.5 682.62 607.42)"  >
<path style="stroke: none; stroke-width: 1; stroke-dasharray: none; stroke-linecap: butt; stroke-dashoffset: 0; stroke-linejoin: miter; stroke-miterlimit: 4; fill: rgb(7,6,25); fill-rule: nonzero; opacity: 1;"  transform=" translate(-1326.08, -1396.11)" d="M 1324.25 1395.2 C 1296.51 1393.37 1028.02 1396.2 1025.81 1394.24 C 1029.95 1390.67 1047.63 1392.26 1054.3 1392.35 C 1069.28 1392.5 1084.25 1392.55 1099.22 1392.51 L 1441.57 1392.34 L 1559.77 1392.28 C 1573.43 1392.34 1620.63 1388.35 1626.35 1399.8 L 1626.08 1400.57 C 1615.51 1392.79 1596.28 1395.28 1583.08 1395.29 L 1525.14 1395.31 L 1324.25 1395.2 z" stroke-linecap="round" />
</g>
<g transform="matrix(0.5 0 0 0.5 679.79 624.25)"  >
<path style="stroke: none; stroke-width: 1; stroke-dasharray: none; stroke-linecap: butt; stroke-dashoffset: 0; stroke-linejoin: miter; stroke-miterlimit: 4; fill: rgb(21,17,56); fill-rule: nonzero; opacity: 1;"  transform=" translate(-1320.42, -1429.78)" d="M 1023.05 1427.7 C 1033.16 1429.71 1059.61 1429.04 1070.79 1429.04 L 1155.43 1429 L 1474.92 1429.01 L 1574.08 1428.94 C 1583.4 1428.93 1610.58 1428.05 1617.8 1428.69 L 1617.49 1430.21 L 1188.62 1429.96 C 1176.58 1429.96 1164.56 1429.82 1152.52 1430.26 C 1145.94 1430.53 1139.3 1431.88 1132.7 1431.86 C 1097.22 1431.72 1061.99 1431.81 1026.56 1430 C 1024.58 1429.9 1023.96 1429.05 1023.05 1427.7 z" stroke-linecap="round" />
</g>
<g transform="matrix(0.5 0 0 0.5 680.4 547.13)"  >
<path style="stroke: none; stroke-width: 1; stroke-dasharray: none; stroke-linecap: butt; stroke-dashoffset: 0; stroke-linejoin: miter; stroke-miterlimit: 4; fill: rgb(255,255,255); fill-rule: nonzero; opacity: 1;"  transform=" translate(-1321.65, -1275.54)" d="M 1202.55 1259.49 L 1490.64 1259.41 L 1574.67 1259.33 C 1588.48 1259.32 1603.42 1258.94 1617.18 1259.86 C 1620.46 1260.08 1625.52 1263.19 1627.24 1266.09 C 1633.53 1276.7 1627.16 1285.25 1618.93 1290.69 C 1607.48 1292.43 1572.53 1291.66 1559 1291.66 L 1441.75 1291.59 L 1167.49 1291.61 L 1079.76 1291.68 C 1063.48 1291.71 1047.2 1291.91 1030.93 1291.4 C 1022.15 1291.13 1014.62 1286.18 1013.59 1276.97 C 1013.13 1272.48 1014.65 1268.01 1017.75 1264.73 C 1021.43 1260.78 1025.62 1259.62 1030.92 1259.65 C 1047.65 1259.74 1064.43 1259.67 1081.16 1259.66 L 1202.55 1259.49 z" stroke-linecap="round" />
</g>
<g transform="matrix(0.5 0 0 0.5 662.46 340.23)"  >
<path style="stroke: none; stroke-width: 1; stroke-dasharray: none; stroke-linecap: butt; stroke-dashoffset: 0; stroke-linejoin: miter; stroke-miterlimit: 4; fill: rgb(255,255,255); fill-rule: nonzero; opacity: 1;"  transform=" translate(-1285.76, -861.75)" d="M 1189.25 837.721 C 1189.38 836.526 1189.73 836.058 1190.22 834.892 C 1198.35 830.163 1208.76 826.18 1217.52 822.333 C 1239.27 812.795 1260.99 803.065 1282.9 793.954 C 1284.41 793.328 1286.69 793.924 1288.18 794.274 C 1289.23 794.302 1290.27 794.331 1291.32 794.36 C 1318.26 815.289 1378.75 857.528 1401.35 876.97 C 1399.15 878.023 1393.92 880.342 1392.07 881.478 L 1391.95 883.166 C 1363.95 899.235 1325.93 911.922 1296.45 926.663 C 1294.99 925.678 1295.39 926.315 1294.96 924.948 C 1291.72 926.139 1287.24 928.339 1283.97 929.811 C 1247.46 905.679 1207.56 871.969 1170.16 846.313 C 1176.28 843.745 1183.56 840.916 1189.25 837.721 z" stroke-linecap="round" />
</g>
<g transform="matrix(0.5 0 0 0.5 638.93 317.21)"  >
<path style="stroke: none; stroke-width: 1; stroke-dasharray: none; stroke-linecap: butt; stroke-dashoffset: 0; stroke-linejoin: miter; stroke-miterlimit: 4; fill: rgb(7,6,25); fill-rule: nonzero; opacity: 1;"  transform=" translate(-1238.72, -815.7)" d="M 1189.25 837.721 C 1189.38 836.526 1189.73 836.058 1190.22 834.892 C 1198.35 830.163 1208.76 826.18 1217.52 822.333 C 1239.27 812.795 1260.99 803.065 1282.9 793.954 C 1284.41 793.328 1286.69 793.924 1288.18 794.274 C 1255.32 809.016 1222.34 823.499 1189.25 837.721 z" stroke-linecap="round" />
</g>
<g transform="matrix(0.5 0 0 0.5 691.34 361.4)"  >
<path style="stroke: none; stroke-width: 1; stroke-dasharray: none; stroke-linecap: butt; stroke-dashoffset: 0; stroke-linejoin: miter; stroke-miterlimit: 4; fill: rgb(7,6,25); fill-rule: nonzero; opacity: 1;"  transform=" translate(-1343.51, -904.07)" d="M 1392.07 881.478 L 1391.95 883.166 C 1363.95 899.235 1325.93 911.922 1296.45 926.663 C 1294.99 925.678 1295.39 926.315 1294.96 924.948 C 1326.51 910.287 1360.02 894.882 1392.07 881.478 z" stroke-linecap="round" />
</g>
<g transform="matrix(0.5 0 0 0.5 792.82 281.16)"  >
<path style="stroke: none; stroke-width: 1; stroke-dasharray: none; stroke-linecap: butt; stroke-dashoffset: 0; stroke-linejoin: miter; stroke-miterlimit: 4; fill: rgb(255,255,255); fill-rule: nonzero; opacity: 1;"  transform=" translate(-1546.49, -743.6)" d="M 1445.28 724.797 L 1445.96 721.983 C 1452.4 718.072 1462.02 714.349 1469.08 711.314 C 1496.08 699.701 1522.75 687.276 1549.81 675.808 C 1552.64 674.609 1552.45 675.163 1554.95 676.485 L 1552.29 677.287 C 1561.88 682.26 1653.95 751.475 1659.89 758.536 L 1658.86 760.71 C 1657.4 763.732 1654.01 765.332 1650.85 766.713 C 1620.62 779.917 1590.45 792.621 1560.86 807.236 C 1558.51 808.398 1556.3 808.572 1553.97 807.448 L 1542.81 812.044 C 1518.89 795.296 1495.94 776.41 1472.09 759.712 C 1470.38 759.944 1469.75 759.819 1468.02 759.746 C 1463.38 757.104 1456.48 752.886 1453.35 748.517 L 1454.21 746.201 C 1446.98 740.313 1440.68 735.605 1433.09 730.185 C 1437.54 728.407 1440.98 726.895 1445.28 724.797 z" stroke-linecap="round" />
</g>
<g transform="matrix(0.5 0 0 0.5 769.64 259.35)"  >
<path style="stroke: none; stroke-width: 1; stroke-dasharray: none; stroke-linecap: butt; stroke-dashoffset: 0; stroke-linejoin: miter; stroke-miterlimit: 4; fill: rgb(7,6,25); fill-rule: nonzero; opacity: 1;"  transform=" translate(-1500.12, -699.97)" d="M 1445.28 724.797 L 1445.96 721.983 C 1452.4 718.072 1462.02 714.349 1469.08 711.314 C 1496.08 699.701 1522.75 687.276 1549.81 675.808 C 1552.64 674.609 1552.45 675.163 1554.95 676.485 L 1552.29 677.287 C 1519.27 692.838 1478.85 710.881 1445.28 724.797 z" stroke-linecap="round" />
</g>
<g transform="matrix(0.5 0 0 0.5 822.78 301.59)"  >
<path style="stroke: none; stroke-width: 1; stroke-dasharray: none; stroke-linecap: butt; stroke-dashoffset: 0; stroke-linejoin: miter; stroke-miterlimit: 4; fill: rgb(7,6,25); fill-rule: nonzero; opacity: 1;"  transform=" translate(-1606.41, -784.46)" d="M 1658.86 760.71 C 1657.4 763.732 1654.01 765.332 1650.85 766.713 C 1620.62 779.917 1590.45 792.621 1560.86 807.236 C 1558.51 808.398 1556.3 808.572 1553.97 807.448 C 1563.11 802.347 1587.05 792.174 1597.15 787.717 C 1615.9 779.454 1640.06 767.569 1658.86 760.71 z" stroke-linecap="round" />
</g>
<g transform="matrix(0.5 0 0 0.5 750.93 285.87)"  >
<path style="stroke: none; stroke-width: 1; stroke-dasharray: none; stroke-linecap: butt; stroke-dashoffset: 0; stroke-linejoin: miter; stroke-miterlimit: 4; fill: rgb(7,6,25); fill-rule: nonzero; opacity: 1;"  transform=" translate(-1462.72, -753.02)" d="M 1454.21 746.201 L 1472.09 759.712 C 1470.38 759.944 1469.75 759.819 1468.02 759.746 C 1463.38 757.104 1456.48 752.886 1453.35 748.517 L 1454.21 746.201 z" stroke-linecap="round" />
</g>
<g transform="matrix(0.5 0 0 0.5 830.21 449.51)"  >
<path style="stroke: none; stroke-width: 1; stroke-dasharray: none; stroke-linecap: butt; stroke-dashoffset: 0; stroke-linejoin: miter; stroke-miterlimit: 4; fill: rgb(255,255,255); fill-rule: nonzero; opacity: 1;"  transform=" translate(-1621.28, -1080.28)" d="M 1596.64 1026.91 C 1596.31 1023.89 1596.23 1024.09 1597.47 1021.32 C 1600.22 1019.37 1600.43 1019.01 1604.01 1018.97 C 1636.04 1018.56 1668.12 1018.9 1700.16 1018.93 C 1708.12 1018.94 1718.18 1018.56 1725.82 1019.73 L 1726.11 1020.72 L 1723.2 1021.91 C 1726.37 1022.1 1727.69 1021.57 1729.6 1023.2 C 1727.66 1027.4 1702.35 1060.95 1697.99 1066.6 C 1679.21 1090.98 1661.46 1117.33 1642.88 1141.61 C 1600.74 1141.54 1554.8 1140.66 1512.95 1141.8 C 1534.05 1114.59 1554.2 1085.75 1574.77 1058.07 C 1577.94 1053.81 1595.51 1029.85 1596.64 1026.91 z" stroke-linecap="round" />
</g>
<g transform="matrix(0.5 0 0 0.5 850.21 420.79)"  >
<path style="stroke: none; stroke-width: 1; stroke-dasharray: none; stroke-linecap: butt; stroke-dashoffset: 0; stroke-linejoin: miter; stroke-miterlimit: 4; fill: rgb(7,6,25); fill-rule: nonzero; opacity: 1;"  transform=" translate(-1661.27, -1022.84)" d="M 1596.64 1026.91 C 1596.31 1023.89 1596.23 1024.09 1597.47 1021.32 C 1600.22 1019.37 1600.43 1019.01 1604.01 1018.97 C 1636.04 1018.56 1668.12 1018.9 1700.16 1018.93 C 1708.12 1018.94 1718.18 1018.56 1725.82 1019.73 L 1726.11 1020.72 L 1723.2 1021.91 C 1683.28 1021.92 1641.64 1021.6 1601.63 1022.11 C 1600.66 1022.13 1597.4 1025.97 1596.64 1026.91 z" stroke-linecap="round" />
</g>
<g transform="matrix(0.5 0 0 0.5 533.23 395.54)"  >
<path style="stroke: none; stroke-width: 1; stroke-dasharray: none; stroke-linecap: butt; stroke-dashoffset: 0; stroke-linejoin: miter; stroke-miterlimit: 4; fill: rgb(255,255,255); fill-rule: nonzero; opacity: 1;"  transform=" translate(-1027.32, -972.35)" d="M 1031.97 908.34 C 1035.28 907.313 1036.32 906.26 1039.05 907.899 C 1052.43 915.927 1063.76 927.49 1075.69 936.997 C 1081.43 941.562 1095.24 946.016 1102.75 950.252 C 1107.51 952.939 1124.04 966.12 1126.31 967.16 C 1133.44 968.442 1134.1 976.354 1133.02 982.6 C 1131.69 990.248 1124.01 997.53 1117.49 1001.15 C 1100.41 1009.26 1080.65 1016.99 1063.07 1023.82 L 1062.01 1022.6 C 1050.53 1026.87 1033.72 1038.05 1023.35 1037.65 C 1009.74 1037.13 1002.04 1017.61 993.316 1010.97 C 988.226 1007.09 977.803 1001.43 971.841 997.861 C 950.058 984.803 937.406 975.955 921.213 956.728 C 926.478 954.724 930.183 953.258 935.281 950.779 C 935.542 949.573 936.037 946.791 938.048 945.977 C 968.407 933.7 998.156 919.67 1028.57 907.557 C 1029.7 907.818 1030.83 908.079 1031.97 908.34 z" stroke-linecap="round" />
</g>
<g transform="matrix(0.5 0 0 0.5 511.39 373.95)"  >
<path style="stroke: none; stroke-width: 1; stroke-dasharray: none; stroke-linecap: butt; stroke-dashoffset: 0; stroke-linejoin: miter; stroke-miterlimit: 4; fill: rgb(7,6,25); fill-rule: nonzero; opacity: 1;"  transform=" translate(-983.63, -929.17)" d="M 935.281 950.779 C 935.542 949.573 936.037 946.791 938.048 945.977 C 968.407 933.7 998.156 919.67 1028.57 907.557 C 1029.7 907.818 1030.83 908.079 1031.97 908.34 C 1000.78 922.035 966.516 938.042 935.281 950.779 z" stroke-linecap="round" />
</g>
<g transform="matrix(0.5 0 0 0.5 568.44 407.11)"  >
<path style="stroke: none; stroke-width: 1; stroke-dasharray: none; stroke-linecap: butt; stroke-dashoffset: 0; stroke-linejoin: miter; stroke-miterlimit: 4; fill: rgb(7,6,25); fill-rule: nonzero; opacity: 1;"  transform=" translate(-1097.72, -995.49)" d="M 1126.31 967.16 C 1133.44 968.442 1134.1 976.354 1133.02 982.6 C 1131.69 990.248 1124.01 997.53 1117.49 1001.15 C 1100.41 1009.26 1080.65 1016.99 1063.07 1023.82 L 1062.01 1022.6 C 1078.14 1014.43 1095.75 1008.51 1112.11 1000.78 C 1119.26 997.402 1127.37 991.716 1129.57 983.759 C 1131.52 976.755 1129.71 973.015 1126.31 967.16 z" stroke-linecap="round" />
</g>
<g transform="matrix(0.5 0 0 0.5 594.16 449.44)"  >
<path style="stroke: none; stroke-width: 1; stroke-dasharray: none; stroke-linecap: butt; stroke-dashoffset: 0; stroke-linejoin: miter; stroke-miterlimit: 4; fill: rgb(255,255,255); fill-rule: nonzero; opacity: 1;"  transform=" translate(-1149.16, -1080.16)" d="M 1139.28 1019.33 C 1145.77 1016 1195.54 1021.13 1206.72 1021.88 L 1207.28 1022.65 L 1205.27 1023.38 C 1209.55 1024.89 1244.53 1026.9 1253.09 1028.42 C 1244.42 1041.46 1231.68 1057.65 1222.2 1070.4 L 1169.57 1141.38 C 1131.44 1142.93 1084.32 1141.49 1045.24 1141.67 C 1060.54 1119.95 1078.16 1097.52 1094.26 1076.27 C 1108.18 1057.89 1124.13 1036.44 1139.28 1019.33 z" stroke-linecap="round" />
</g>
<g transform="matrix(0.5 0 0 0.5 606.22 419.76)"  >
<path style="stroke: none; stroke-width: 1; stroke-dasharray: none; stroke-linecap: butt; stroke-dashoffset: 0; stroke-linejoin: miter; stroke-miterlimit: 4; fill: rgb(7,6,25); fill-rule: nonzero; opacity: 1;"  transform=" translate(-1173.28, -1020.8)" d="M 1139.28 1019.33 C 1145.77 1016 1195.54 1021.13 1206.72 1021.88 L 1207.28 1022.65 L 1205.27 1023.38 C 1195.15 1022.77 1145.17 1021.71 1139.28 1019.33 z" stroke-linecap="round" />
</g>
<g transform="matrix(0.5 0 0 0.5 710.02 449.55)"  >
<path style="stroke: none; stroke-width: 1; stroke-dasharray: none; stroke-linecap: butt; stroke-dashoffset: 0; stroke-linejoin: miter; stroke-miterlimit: 4; fill: rgb(255,255,255); fill-rule: nonzero; opacity: 1;"  transform=" translate(-1380.89, -1080.38)" d="M 1374.47 1021.8 L 1367.64 1020.68 L 1366.74 1019.39 C 1380.77 1018.16 1405.08 1018.88 1419.74 1018.95 C 1438.22 1019.04 1462.95 1018.25 1480.99 1019.53 L 1481.27 1020.15 C 1478.96 1020.76 1476.79 1021.36 1474.43 1021.83 C 1478.55 1021.82 1479.55 1021.61 1483.37 1022.85 C 1481.73 1026.56 1459.83 1055.7 1455.74 1061.15 C 1435.78 1087.67 1416.49 1115.06 1396.36 1141.38 C 1359.72 1143.03 1316.23 1141.13 1278.41 1141.82 C 1308.38 1103.09 1335.75 1062.39 1365.35 1023.4 C 1366.83 1021.45 1372.07 1021.9 1374.47 1021.8 z" stroke-linecap="round" />
</g>
<g transform="matrix(0.5 0 0 0.5 731.58 419.57)"  >
<path style="stroke: none; stroke-width: 1; stroke-dasharray: none; stroke-linecap: butt; stroke-dashoffset: 0; stroke-linejoin: miter; stroke-miterlimit: 4; fill: rgb(7,6,25); fill-rule: nonzero; opacity: 1;"  transform=" translate(-1424.01, -1020.41)" d="M 1374.47 1021.8 L 1367.64 1020.68 L 1366.74 1019.39 C 1380.77 1018.16 1405.08 1018.88 1419.74 1018.95 C 1438.22 1019.04 1462.95 1018.25 1480.99 1019.53 L 1481.27 1020.15 C 1478.96 1020.76 1476.79 1021.36 1474.43 1021.83 C 1464.33 1022.46 1448.09 1021.96 1437.61 1021.97 C 1416.56 1022.11 1395.51 1022.05 1374.47 1021.8 z" stroke-linecap="round" />
</g>
<g transform="matrix(0.5 0 0 0.5 486.25 440.36)"  >
<path style="stroke: none; stroke-width: 1; stroke-dasharray: none; stroke-linecap: butt; stroke-dashoffset: 0; stroke-linejoin: miter; stroke-miterlimit: 4; fill: rgb(255,255,255); fill-rule: nonzero; opacity: 1;"  transform=" translate(-933.36, -1061.98)" d="M 921.141 1040.41 C 928.306 1031.78 938.906 1034.08 947.317 1039.45 L 947.063 1040.48 C 953.192 1048.13 956.489 1049.51 958.022 1061.54 C 958.864 1068.14 956.791 1075.09 952.417 1080.2 C 947.732 1085.56 941.093 1088.83 933.984 1089.26 C 927.013 1089.64 920.194 1087.13 915.137 1082.31 C 910.644 1077.96 908.432 1072.19 908.51 1066.01 C 908.67 1053.41 912.856 1048.73 921.141 1040.41 z" stroke-linecap="round" />
</g>
<g transform="matrix(0.5 0 0 0.5 486.69 428.15)"  >
<path style="stroke: none; stroke-width: 1; stroke-dasharray: none; stroke-linecap: butt; stroke-dashoffset: 0; stroke-linejoin: miter; stroke-miterlimit: 4; fill: rgb(7,6,25); fill-rule: nonzero; opacity: 1;"  transform=" translate(-934.23, -1037.57)" d="M 921.141 1040.41 C 928.306 1031.78 938.906 1034.08 947.317 1039.45 L 947.063 1040.48 C 933.945 1038.02 936.571 1035.11 921.141 1040.41 z" stroke-linecap="round" />
</g>
<g transform="matrix(0.5 0 0 0.5 444.11 400.17)"  >
<path style="stroke: none; stroke-width: 1; stroke-dasharray: none; stroke-linecap: butt; stroke-dashoffset: 0; stroke-linejoin: miter; stroke-miterlimit: 4; fill: rgb(7,6,25); fill-rule: nonzero; opacity: 1;"  transform=" translate(-849.07, -981.61)" d="M 851.719 960.811 C 852.193 963.233 847.995 998.572 847.18 1002.4 C 845.815 987.412 845.536 974.766 851.719 960.811 z" stroke-linecap="round" />
</g>
<g transform="matrix(0.5 0 0 0.5 408.59 199.75)"  >
<path style="stroke: none; stroke-width: 1; stroke-dasharray: none; stroke-linecap: butt; stroke-dashoffset: 0; stroke-linejoin: miter; stroke-miterlimit: 4; fill: rgb(0,0,0); fill-rule: nonzero; opacity: 1;"  transform=" translate(-778.03, -580.77)" d="M 748.353 514.469 C 784.692 482.11 825.876 517.744 832.42 557.889 C 839.282 578.671 833.305 624.963 816.339 640.264 C 812.913 647 801.079 654.476 793.977 656.746 C 759.405 667.797 735.053 646.154 725.499 614.703 C 717.356 587.844 719.972 558.872 732.794 533.906 C 735.741 527.207 742.365 518.691 748.353 514.469 z" stroke-linecap="round" />
</g>
<g transform="matrix(0.5 0 0 0.5 403.87 207.76)"  >
<path style="stroke: none; stroke-width: 1; stroke-dasharray: none; stroke-linecap: butt; stroke-dashoffset: 0; stroke-linejoin: miter; stroke-miterlimit: 4; fill: rgb(7,6,25); fill-rule: nonzero; opacity: 1;"  transform=" translate(-768.59, -596.79)" d="M 732.794 533.906 C 733.101 536.23 723.743 568.138 723.628 576.278 C 723.131 611.339 734.092 658.394 778.598 656.306 C 798.695 655.14 800.984 652.729 815.871 639.842 L 816.339 640.264 C 812.913 647 801.079 654.476 793.977 656.746 C 759.405 667.797 735.053 646.154 725.499 614.703 C 717.356 587.844 719.972 558.872 732.794 533.906 z" stroke-linecap="round" />
</g>
<g transform="matrix(0.5 0 0 0.5 414.77 174.4)"  >
<path style="stroke: none; stroke-width: 1; stroke-dasharray: none; stroke-linecap: butt; stroke-dashoffset: 0; stroke-linejoin: miter; stroke-miterlimit: 4; fill: rgb(7,6,25); fill-rule: nonzero; opacity: 1;"  transform=" translate(-790.39, -530.07)" d="M 748.353 514.469 C 784.692 482.11 825.876 517.744 832.42 557.889 L 831.384 558.271 C 822.099 540.99 820.902 524.63 802.862 512.879 C 788.976 502.989 774.767 503.756 759.785 510.379 C 756.865 511.669 751.582 514.243 748.353 514.469 z" stroke-linecap="round" />
</g>
<g transform="matrix(0.5 0 0 0.5 552.75 199.96)"  >
<path style="stroke: none; stroke-width: 1; stroke-dasharray: none; stroke-linecap: butt; stroke-dashoffset: 0; stroke-linejoin: miter; stroke-miterlimit: 4; fill: rgb(0,0,0); fill-rule: nonzero; opacity: 1;"  transform=" translate(-1066.34, -581.19)" d="M 1105.99 638.314 C 1105.56 638.925 1105.13 639.528 1104.68 640.122 C 1088.52 661.499 1056.36 666.565 1035.93 648.971 C 1002.1 619.824 1002.47 554.247 1030.07 521.081 C 1047.29 500.394 1078.25 495.568 1098.43 515.201 C 1113.97 530.353 1121.69 553.483 1122.06 574.838 C 1125.27 589.403 1116.97 627.642 1105.99 638.314 z" stroke-linecap="round" />
</g>
<g transform="matrix(0.5 0 0 0.5 552.58 199.96)"  >
<path style="stroke: none; stroke-width: 1; stroke-dasharray: none; stroke-linecap: butt; stroke-dashoffset: 0; stroke-linejoin: miter; stroke-miterlimit: 4; fill: rgb(0,0,0); fill-rule: nonzero; opacity: 1;"  transform=" translate(-1065.99, -581.19)" d="M 1105.99 638.314 C 1105.56 638.925 1105.13 639.528 1104.68 640.122 C 1088.52 661.499 1056.36 666.565 1035.93 648.971 C 1002.1 619.824 1002.47 554.247 1030.07 521.081 C 1047.29 500.394 1078.25 495.568 1098.43 515.201 C 1113.97 530.353 1121.69 553.483 1122.06 574.838 C 1119.71 570.971 1117.14 559.415 1116.26 555.132 C 1102.83 489.896 1033.78 489.59 1016.97 552.439 C 1009.86 579.057 1011.34 604.937 1024.14 629.737 C 1036.56 654.055 1065.21 664.751 1089.69 650.694 C 1095.01 647.626 1099.72 643.591 1103.57 638.797 L 1105.99 638.314 z" stroke-linecap="round" />
</g>
<g transform="matrix(0.5 0 0 0.5 482.92 289.1)"  >
<path style="stroke: none; stroke-width: 1; stroke-dasharray: none; stroke-linecap: butt; stroke-dashoffset: 0; stroke-linejoin: miter; stroke-miterlimit: 4; fill: rgb(0,0,0); fill-rule: nonzero; opacity: 1;"  transform=" translate(-926.69, -759.47)" d="M 1005.13 724.67 C 1016.86 709.236 1037.83 711.298 1043.23 729.88 C 1048.48 749.665 1022.34 772.882 1007.09 781.72 C 958.989 815.614 865.878 812.736 825.484 767.576 C 814.634 757.455 803.386 737.857 813.269 723.793 C 817.167 718.943 821.192 715.379 827.645 714.479 C 840.54 712.679 848.367 725.877 857.019 733.202 C 871.177 745.187 889.68 751.705 907.813 754.314 C 918.913 755.032 927.121 755.162 938.19 755.032 C 957.641 753.332 969.638 748.928 986.825 740.461 C 990.612 737.072 1001.27 727.815 1005.13 724.67 z" stroke-linecap="round" />
</g>
<g transform="matrix(0.5 0 0 0.5 477.72 302.14)"  >
<path style="stroke: none; stroke-width: 1; stroke-dasharray: none; stroke-linecap: butt; stroke-dashoffset: 0; stroke-linejoin: miter; stroke-miterlimit: 4; fill: rgb(7,6,25); fill-rule: nonzero; opacity: 1;"  transform=" translate(-916.29, -785.56)" d="M 825.484 767.576 L 826.157 766.481 C 829.298 769.113 838.183 776.923 841.061 778.709 C 870.126 796.739 904.788 804.393 938.693 801.789 C 962.437 799.965 984.856 790.942 1005.93 780.684 L 1007.09 781.72 C 958.989 815.614 865.878 812.736 825.484 767.576 z" stroke-linecap="round" />
</g>
<g transform="matrix(0.5 0 0 0.5 449.85 276.75)"  >
<path style="stroke: none; stroke-width: 1; stroke-dasharray: none; stroke-linecap: butt; stroke-dashoffset: 0; stroke-linejoin: miter; stroke-miterlimit: 4; fill: rgb(7,6,25); fill-rule: nonzero; opacity: 1;"  transform=" translate(-860.54, -734.77)" d="M 813.269 723.793 C 817.167 718.943 821.192 715.379 827.645 714.479 C 840.54 712.679 848.367 725.877 857.019 733.202 C 871.177 745.187 889.68 751.705 907.813 754.314 C 904.42 756.415 898.849 754.274 894.911 753.738 C 879.633 751.659 865.694 743.355 854.171 733.451 C 847.768 727.948 842.013 720.215 833.747 717.697 C 825.887 715.373 820.425 721.526 813.269 723.793 z" stroke-linecap="round" />
</g>
<g transform="matrix(0.5 0 0 0.5 499.94 283.81)"  >
<path style="stroke: none; stroke-width: 1; stroke-dasharray: none; stroke-linecap: butt; stroke-dashoffset: 0; stroke-linejoin: miter; stroke-miterlimit: 4; fill: rgb(7,6,25); fill-rule: nonzero; opacity: 1;"  transform=" translate(-960.72, -748.9)" d="M 986.825 740.461 C 982.595 749.727 944.292 759.858 934.622 756.774 C 935.504 755.527 936.136 755.755 938.19 755.032 C 957.641 753.332 969.638 748.928 986.825 740.461 z" stroke-linecap="round" />
</g>
<g transform="matrix(0.5 0 0 0.5 531.66 270.76)"  >
<path style="stroke: none; stroke-width: 1; stroke-dasharray: none; stroke-linecap: butt; stroke-dashoffset: 0; stroke-linejoin: miter; stroke-miterlimit: 4; fill: rgb(7,6,25); fill-rule: nonzero; opacity: 1;"  transform=" translate(-1024.18, -722.79)" d="M 1005.13 724.67 C 1016.86 709.236 1037.83 711.298 1043.23 729.88 L 1042.08 731.202 C 1039.89 729.781 1040.45 729.387 1039.54 726.041 C 1017.83 706.163 1018.53 723.574 1005.13 724.67 z" stroke-linecap="round" />
</g>
<g transform="matrix(1 0 0 1 720.29 -37.24)"  >
<path style="stroke: rgb(0,0,0); stroke-width: 1; stroke-dasharray: none; stroke-linecap: round; stroke-dashoffset: 0; stroke-linejoin: round; stroke-miterlimit: 10; fill: none; fill-rule: nonzero; opacity: 1;"  transform=" translate(-720.29, 37.24)" d="M 719.5955480043149 -37.24302184466026 Q 719.5965480043149 -37.24302184466026 720.286947141316 -37.24302184466026 L 720.9783462783171 -37.24302184466026" stroke-linecap="round" />
</g>
</svg>